<?xml version="1.0" standalone="no"?>
<!DOCTYPE svg PUBLIC "-//W3C//DTD SVG 20010904//EN"
 "http://www.w3.org/TR/2001/REC-SVG-20010904/DTD/svg10.dtd">
<svg version="1.0" xmlns="http://www.w3.org/2000/svg"
 width="512.000000pt" height="512.000000pt" viewBox="0 0 512.000000 512.000000"
 preserveAspectRatio="xMidYMid meet">
<metadata>
Created by potrace 1.11, written by Peter Selinger 2001-2013
</metadata>
<g transform="translate(0.000000,512.000000) scale(0.100000,-0.100000)"
fill="#000000" stroke="none">
<path d="M1363 5105 c-71 -50 -96 -242 -58 -456 l6 -37 -96 49 c-52 26 -111
51 -130 55 -44 8 -80 -14 -88 -53 -14 -71 40 -228 118 -345 l53 -78 -47 5
c-144 14 -228 14 -249 -1 -51 -36 -5 -141 117 -263 33 -33 55 -61 48 -62 -16
-1 -54 -1 -97 2 -89 5 -105 -50 -41 -148 34 -52 74 -93 175 -176 l30 -24 -65
-12 c-36 -6 -79 -11 -95 -11 -42 0 -74 -25 -74 -59 0 -55 102 -156 221 -219
l56 -30 -41 -12 c-22 -7 -54 -15 -71 -17 -63 -10 -81 -53 -46 -107 21 -31 122
-106 171 -126 17 -7 30 -16 30 -20 0 -14 -80 -110 -91 -110 -5 0 -16 -15 -24
-33 -11 -27 -67 -110 -102 -152 -5 -5 -20 -26 -33 -45 -14 -19 -27 -37 -30
-40 -3 -3 -25 -32 -49 -65 -25 -33 -47 -62 -51 -65 -3 -3 -13 -17 -22 -31
l-17 -27 220 -293 c264 -351 263 -350 252 -347 -7 2 -126 -12 -143 -17 -3 0
-32 -4 -65 -9 -33 -4 -72 -9 -86 -12 -14 -2 -42 -6 -62 -8 -20 -3 -52 -8 -69
-11 l-33 -6 0 -715 -1 -715 51 6 c27 3 61 7 74 10 14 2 47 7 75 10 28 3 76 10
106 15 30 5 73 11 95 14 40 6 290 41 355 50 81 12 318 46 355 50 22 3 102 14
178 26 76 11 140 20 142 20 3 0 80 -100 171 -223 92 -122 170 -225 173 -229 4
-5 23 13 42 40 243 324 374 499 385 511 7 7 23 15 36 16 24 3 118 15 153 21
11 1 38 5 60 9 22 3 56 8 75 10 56 8 111 16 132 20 11 2 47 7 81 10 34 4 64 8
67 10 3 2 33 6 65 10 33 3 67 8 75 10 8 2 35 7 60 10 25 3 63 8 85 11 22 3 51
7 65 9 14 2 43 6 65 10 22 3 56 8 75 10 19 2 53 7 75 10 47 8 72 11 140 20
l50 6 0 717 c0 462 -4 716 -10 715 -6 0 -39 -4 -73 -8 l-64 -7 81 108 c51 67
78 111 72 118 -103 134 -286 389 -296 413 -8 18 -19 33 -24 33 -6 0 -31 26
-55 57 l-45 56 51 24 c54 25 120 72 155 113 44 49 23 101 -47 115 -19 3 -50
11 -69 17 l-33 10 70 42 c164 96 245 209 180 250 -13 7 -52 16 -88 20 -36 3
-78 10 -94 14 l-29 8 51 37 c106 78 192 193 192 257 0 25 -6 33 -31 44 -18 8
-45 11 -63 7 -17 -3 -38 -5 -46 -5 -8 1 -24 2 -34 3 -15 1 -10 10 26 44 93 87
168 201 160 242 -2 13 -11 30 -20 37 -16 13 -108 15 -229 5 -35 -3 -63 -2 -63
2 0 4 13 25 29 47 76 102 133 246 134 336 0 42 -4 54 -23 70 -33 27 -71 20
-165 -27 -44 -22 -92 -46 -107 -52 -26 -12 -27 -11 -19 11 25 65 32 223 14
318 -23 126 -66 182 -121 159 -40 -17 -56 -33 -177 -174 l-109 -128 -20 38
c-22 45 -32 53 -67 53 -17 0 -39 -13 -63 -37 -92 -95 -330 -419 -355 -485 -13
-34 -22 -35 -41 -7 -8 12 -20 27 -25 33 -6 6 -64 83 -130 171 -65 88 -128 172
-140 186 l-21 26 -164 -218 c-90 -121 -168 -219 -172 -219 -5 0 -13 12 -19 28
-25 66 -263 390 -355 485 -27 27 -45 37 -69 37 -27 0 -35 -6 -56 -45 l-25 -45
-50 57 c-27 31 -67 77 -89 103 -22 25 -49 57 -60 70 -24 30 -84 74 -105 78 -9
1 -25 -5 -37 -13z"/>
</g>
</svg>
